<svg width="27" height="28" viewBox="0 0 27 28" fill="none" xmlns="http://www.w3.org/2000/svg">
<g id="right 1">
<g id="19">
<path id="Vector" d="M13.5002 22.0395C13.2767 22.0408 13.058 21.9755 12.8718 21.852C12.6855 21.7284 12.5403 21.5523 12.4547 21.3459C12.369 21.1395 12.3467 20.9123 12.3906 20.6932C12.4346 20.4741 12.5428 20.2731 12.7014 20.1157L18.6639 14.1645L12.7014 8.21321C12.5171 7.998 12.4208 7.72116 12.4318 7.43802C12.4427 7.15489 12.5601 6.88631 12.7604 6.68595C12.9608 6.48559 13.2294 6.36822 13.5125 6.35728C13.7956 6.34635 14.0725 6.44265 14.2877 6.62696L21.0377 13.377C21.2472 13.5877 21.3648 13.8729 21.3648 14.1701C21.3648 14.4673 21.2472 14.7524 21.0377 14.9632L14.2877 21.7132C14.0782 21.921 13.7953 22.0382 13.5002 22.0395Z" fill="#D3F93A"/>
<path id="Vector_2" d="M6.7502 22.0398C6.52674 22.0411 6.30796 21.9758 6.12176 21.8523C5.93555 21.7287 5.79034 21.5526 5.70465 21.3462C5.61897 21.1398 5.59668 20.9126 5.64063 20.6935C5.68458 20.4744 5.79279 20.2734 5.95145 20.116L11.9139 14.1648L5.95145 8.21351C5.7396 8.00167 5.62059 7.71435 5.62059 7.41476C5.62059 7.11517 5.7396 6.82785 5.95145 6.61601C6.16329 6.40417 6.45061 6.28516 6.7502 6.28516C7.04978 6.28516 7.3371 6.40417 7.54895 6.61601L14.2989 13.366C14.5085 13.5768 14.6261 13.8619 14.6261 14.1591C14.6261 14.4563 14.5085 14.7415 14.2989 14.9523L7.54895 21.7023C7.44475 21.8086 7.3205 21.8931 7.18339 21.9511C7.04628 22.009 6.89904 22.0391 6.7502 22.0398Z" fill="#D3F93A"/>
</g>
</g>
</svg>
